<svg id="Capa_1" enable-background="new 0 0 512 512" height="40" viewBox="0 0 512 512" width="50" xmlns="http://www.w3.org/2000/svg"><g id="Nano"><path d="m416 288h-320v-128c0-88.366 71.634-160 160-160 88.365 0 160 71.634 160 160z" fill="#ce83ff"/><path d="m96 352h32v128h-32z" fill="#ce83ff"/><path d="m64 288h384v64h-384z" fill="#f9f"/><g fill="#ce83ff"><path d="m64 480h96v32h-96z"/><path d="m240 352h32v128h-32z"/><path d="m208 480h96v32h-96z"/><path d="m384 352h32v128h-32z"/><path d="m352 480h96v32h-96z"/></g><path d="m96 288h320v32h-320z" fill="#96f"/><circle cx="256" cy="160" fill="#f9f" r="64"/></g></svg>